<svg xmlns="http://www.w3.org/2000/svg" width="860" height="420"
     viewBox="0 0 860 420" font-family="system-ui, -apple-system, 'Segoe UI', Roboto, Helvetica, Arial, sans-serif">
  <rect width="860" height="420" fill="#ffffff"/>
  <text x="28" y="34" font-size="17" font-weight="600" fill="#1b1f23">Branch prediction accuracy</text>
  <text x="28" y="55" font-size="12.5" fill="#6a737d">512-entry BHT/BTB with 2-bit saturating counters, against a static not-taken baseline. Same program, same input; only the policy differs.</text>
  <line x1="90" y1="324.0" x2="830" y2="324.0" stroke="#e6e9ec"/>
  <text x="78" y="328.0" font-size="11.5" fill="#6a737d" text-anchor="end">0%</text>
  <line x1="90" y1="265.5" x2="830" y2="265.5" stroke="#e6e9ec"/>
  <text x="78" y="269.5" font-size="11.5" fill="#6a737d" text-anchor="end">25%</text>
  <line x1="90" y1="207.0" x2="830" y2="207.0" stroke="#e6e9ec"/>
  <text x="78" y="211.0" font-size="11.5" fill="#6a737d" text-anchor="end">50%</text>
  <line x1="90" y1="148.5" x2="830" y2="148.5" stroke="#e6e9ec"/>
  <text x="78" y="152.5" font-size="11.5" fill="#6a737d" text-anchor="end">75%</text>
  <line x1="90" y1="90.0" x2="830" y2="90.0" stroke="#e6e9ec"/>
  <text x="78" y="94.0" font-size="11.5" fill="#6a737d" text-anchor="end">100%</text>
  <rect x="118.7" y="108.0" width="30.0" height="216.0" fill="#2f6f9f" rx="2"/>
  <text x="133.7" y="123.0" font-size="10.5" fill="#ffffff" text-anchor="middle">92</text>
  <rect x="154.7" y="99.0" width="30.0" height="225.0" fill="#c96a2b" rx="2"/>
  <text x="169.7" y="114.0" font-size="10.5" fill="#ffffff" text-anchor="middle">96</text>
  <text x="151.7" y="344.0" font-size="11" fill="#1b1f23" text-anchor="middle">fibonacci</text>
  <text x="151.7" y="359.0" font-size="10" fill="#6a737d" text-anchor="middle">26 br</text>
  <rect x="242.0" y="97.8" width="30.0" height="226.2" fill="#2f6f9f" rx="2"/>
  <text x="257.0" y="112.8" font-size="10.5" fill="#ffffff" text-anchor="middle">97</text>
  <rect x="278.0" y="97.8" width="30.0" height="226.2" fill="#c96a2b" rx="2"/>
  <text x="293.0" y="112.8" font-size="10.5" fill="#ffffff" text-anchor="middle">97</text>
  <text x="275.0" y="344.0" font-size="11" fill="#1b1f23" text-anchor="middle">mandelbrot</text>
  <text x="275.0" y="359.0" font-size="10" fill="#6a737d" text-anchor="middle">34,595 br</text>
  <rect x="365.3" y="90.0" width="30.0" height="234.0" fill="#2f6f9f" rx="2"/>
  <text x="380.3" y="105.0" font-size="10.5" fill="#ffffff" text-anchor="middle">100</text>
  <rect x="401.3" y="90.0" width="30.0" height="234.0" fill="#c96a2b" rx="2"/>
  <text x="416.3" y="105.0" font-size="10.5" fill="#ffffff" text-anchor="middle">100</text>
  <text x="398.3" y="344.0" font-size="11" fill="#1b1f23" text-anchor="middle">master_suite</text>
  <text x="398.3" y="359.0" font-size="10" fill="#6a737d" text-anchor="middle">0 br</text>
  <rect x="488.7" y="324.0" width="30.0" height="0.0" fill="#2f6f9f" rx="2"/>
  <rect x="524.7" y="90.0" width="30.0" height="234.0" fill="#c96a2b" rx="2"/>
  <text x="539.7" y="105.0" font-size="10.5" fill="#ffffff" text-anchor="middle">100</text>
  <text x="521.7" y="344.0" font-size="11" fill="#1b1f23" text-anchor="middle">mps_ghz_overlap</text>
  <text x="521.7" y="359.0" font-size="10" fill="#6a737d" text-anchor="middle">2 br</text>
  <rect x="612.0" y="90.0" width="30.0" height="234.0" fill="#2f6f9f" rx="2"/>
  <text x="627.0" y="105.0" font-size="10.5" fill="#ffffff" text-anchor="middle">100</text>
  <rect x="648.0" y="324.0" width="30.0" height="0.0" fill="#c96a2b" rx="2"/>
  <text x="645.0" y="344.0" font-size="11" fill="#1b1f23" text-anchor="middle">quantum_pqc</text>
  <text x="645.0" y="359.0" font-size="10" fill="#6a737d" text-anchor="middle">1 br</text>
  <rect x="735.3" y="90.0" width="30.0" height="234.0" fill="#2f6f9f" rx="2"/>
  <text x="750.3" y="105.0" font-size="10.5" fill="#ffffff" text-anchor="middle">100</text>
  <rect x="771.3" y="90.0" width="30.0" height="234.0" fill="#c96a2b" rx="2"/>
  <text x="786.3" y="105.0" font-size="10.5" fill="#ffffff" text-anchor="middle">100</text>
  <text x="768.3" y="344.0" font-size="11" fill="#1b1f23" text-anchor="middle">tensor_network_zipper</text>
  <text x="768.3" y="359.0" font-size="10" fill="#6a737d" text-anchor="middle">0 br</text>
  <line x1="90" y1="324" x2="830" y2="324" stroke="#c4cad0"/>
  <rect x="90" y="378" width="11" height="11" fill="#2f6f9f" rx="2"/>
  <text x="107" y="388" font-size="11.5" fill="#1b1f23">BHT/BTB</text>
  <rect x="240" y="378" width="11" height="11" fill="#c96a2b" rx="2"/>
  <text x="257" y="388" font-size="11.5" fill="#1b1f23">static not-taken</text>
  <text x="830" y="388" font-size="11" fill="#6a737d" text-anchor="end">higher is better</text>
</svg>
