<svg xmlns="http://www.w3.org/2000/svg" width="860" height="380"
     viewBox="0 0 860 380" font-family="system-ui, -apple-system, 'Segoe UI', Roboto, Helvetica, Arial, sans-serif">
  <rect width="860" height="380" fill="#ffffff"/>
  <text x="28" y="34" font-size="17" font-weight="600" fill="#1b1f23">Emulator throughput</text>
  <text x="28" y="55" font-size="12.5" fill="#6a737d">Million instructions retired per second, mean of 50 runs with output captured. Debug-free release build, single thread.</text>
  <line x1="90" y1="310.0" x2="830" y2="310.0" stroke="#e6e9ec"/>
  <text x="78" y="314.0" font-size="11.5" fill="#6a737d" text-anchor="end">0</text>
  <line x1="90" y1="255.0" x2="830" y2="255.0" stroke="#e6e9ec"/>
  <text x="78" y="259.0" font-size="11.5" fill="#6a737d" text-anchor="end">12</text>
  <line x1="90" y1="200.0" x2="830" y2="200.0" stroke="#e6e9ec"/>
  <text x="78" y="204.0" font-size="11.5" fill="#6a737d" text-anchor="end">25</text>
  <line x1="90" y1="145.0" x2="830" y2="145.0" stroke="#e6e9ec"/>
  <text x="78" y="149.0" font-size="11.5" fill="#6a737d" text-anchor="end">37</text>
  <line x1="90" y1="90.0" x2="830" y2="90.0" stroke="#e6e9ec"/>
  <text x="78" y="94.0" font-size="11.5" fill="#6a737d" text-anchor="end">49</text>
  <rect x="113.8" y="273.4" width="34.5" height="36.6" fill="#2f6f9f" rx="2"/>
  <text x="131.1" y="266.4" font-size="11" fill="#1b1f23" text-anchor="middle">8.2</text>
  <text x="131.1" y="330.0" font-size="11" fill="#1b1f23" text-anchor="middle">fibonacci</text>
  <rect x="196.1" y="216.6" width="34.5" height="93.4" fill="#2f6f9f" rx="2"/>
  <text x="213.3" y="209.6" font-size="11" fill="#1b1f23" text-anchor="middle">21.0</text>
  <text x="213.3" y="330.0" font-size="11" fill="#1b1f23" text-anchor="middle">ising_energy</text>
  <rect x="278.3" y="220.9" width="34.5" height="89.1" fill="#2f6f9f" rx="2"/>
  <text x="295.6" y="213.9" font-size="11" fill="#1b1f23" text-anchor="middle">20.0</text>
  <text x="295.6" y="330.0" font-size="11" fill="#1b1f23" text-anchor="middle">llm_matvec</text>
  <rect x="360.5" y="118.7" width="34.5" height="191.3" fill="#2f6f9f" rx="2"/>
  <text x="377.8" y="111.7" font-size="11" fill="#1b1f23" text-anchor="middle">42.9</text>
  <text x="377.8" y="330.0" font-size="11" fill="#1b1f23" text-anchor="middle">mandelbrot</text>
  <rect x="442.7" y="302.8" width="34.5" height="7.2" fill="#2f6f9f" rx="2"/>
  <text x="460.0" y="295.8" font-size="11" fill="#1b1f23" text-anchor="middle">1.6</text>
  <text x="460.0" y="330.0" font-size="11" fill="#1b1f23" text-anchor="middle">master_suite</text>
  <rect x="525.0" y="248.1" width="34.5" height="61.9" fill="#2f6f9f" rx="2"/>
  <text x="542.2" y="241.1" font-size="11" fill="#1b1f23" text-anchor="middle">13.9</text>
  <text x="542.2" y="330.0" font-size="11" fill="#1b1f23" text-anchor="middle">mps_chain</text>
  <rect x="607.2" y="297.6" width="34.5" height="12.4" fill="#2f6f9f" rx="2"/>
  <text x="624.4" y="290.6" font-size="11" fill="#1b1f23" text-anchor="middle">2.8</text>
  <text x="624.4" y="330.0" font-size="11" fill="#1b1f23" text-anchor="middle">mps_ghz_overlap</text>
  <rect x="689.4" y="305.3" width="34.5" height="4.7" fill="#2f6f9f" rx="2"/>
  <text x="706.7" y="298.3" font-size="11" fill="#1b1f23" text-anchor="middle">1.1</text>
  <text x="706.7" y="330.0" font-size="11" fill="#1b1f23" text-anchor="middle">quantum_pqc</text>
  <rect x="771.6" y="304.9" width="34.5" height="5.1" fill="#2f6f9f" rx="2"/>
  <text x="788.9" y="297.9" font-size="11" fill="#1b1f23" text-anchor="middle">1.1</text>
  <text x="788.9" y="330.0" font-size="11" fill="#1b1f23" text-anchor="middle">tensor_network_zipper</text>
  <line x1="90" y1="310" x2="830" y2="310" stroke="#c4cad0"/>
  <text x="28" y="76" font-size="11.5" fill="#6a737d">MIPS</text>
  <text x="830" y="358" font-size="11" fill="#6a737d" text-anchor="end">short programs are dominated by process and assembly overhead</text>
</svg>
